<svg xmlns="http://www.w3.org/2000/svg" viewBox="0 0 100 100" width="100" height="100">
  <defs>
    <linearGradient id="bookCover" x1="0" y1="0" x2="1" y2="1"><stop offset="0%" stop-color="#1c3a5c"></stop><stop offset="100%" stop-color="#0e2236"></stop></linearGradient>
    <filter id="bookds" x="-40%" y="-40%" width="180%" height="180%"><feDropShadow dx="0" dy="2" stdDeviation="3" flood-color="#000" flood-opacity="0.45"></feDropShadow></filter>
  </defs>
  
  <g class="book" filter="url(#bookds)">
    <rect x="22" y="22" width="56" height="58" rx="4" fill="#f3e4c4"></rect>
    <rect x="26" y="26" width="52" height="54" rx="3" fill="#fbf3df"></rect>
    <path d="M22 20 Q24 16 30 16 L78 16 Q82 16 82 20 L82 80 Q82 84 78 84 L30 84 Q24 84 22 80 Z" fill="url(#bookCover)" stroke="#F4B942" stroke-width="2"></path>
    <rect x="22" y="16" width="6" height="68" fill="#0a1827"></rect>
    <circle cx="54" cy="44" r="13" fill="none" stroke="#F4B942" stroke-width="2"></circle>
    <path d="M54 36 L56.5 43 L64 43 L58 47.5 L60 54.5 L54 50 L48 54.5 L50 47.5 L44 43 L51.5 43 Z" fill="#F4B942"></path>
    <rect x="42" y="64" width="24" height="2.6" rx="1.3" fill="#F4B942" opacity=".8"></rect>
    <rect x="46" y="70" width="16" height="2.6" rx="1.3" fill="#F4B942" opacity=".5"></rect>
    <path d="M70 16 L70 36 L74 31 L78 36 L78 16 Z" fill="#c0392b"></path>
  </g>
</svg>